<svg width="16" height="16" viewBox="0 0 16 16" fill="none" xmlns="http://www.w3.org/2000/svg">
<g clip-path="url(#clip0_4_2)">
<path d="M0.5 3V14H6V10.5C6.32881 10.8288 6.57656 11.2297 6.72361 11.6708L6.74672 11.7402C7.19657 13.0897 8.45953 14 9.88208 14H11H12.056C13.5321 14 14.8595 13.1013 15.4077 11.7308C15.4691 11.5773 15.5166 11.4171 15.549 11.2549C15.8451 9.77449 15.8476 8.2378 15.5515 6.75738L15.5 6.5L15.3289 5.90112C14.8383 4.18391 13.2687 3 11.4828 3H11H0.5Z" fill="black"/>
<path d="M2.43093 12V4.72727H7.24627V5.99503H3.96857V7.72798H6.92667V8.99574H3.96857V12H2.43093ZM12.2259 6.81889C12.1974 6.53243 12.0755 6.3099 11.8601 6.15128C11.6446 5.99266 11.3523 5.91335 10.983 5.91335C10.732 5.91335 10.5201 5.94886 10.3473 6.01989C10.1745 6.08854 10.0419 6.18442 9.94957 6.30753C9.85961 6.43063 9.81463 6.57031 9.81463 6.72656C9.8099 6.85677 9.83712 6.97041 9.89631 7.06747C9.95786 7.16454 10.0419 7.24858 10.1484 7.3196C10.255 7.38826 10.3781 7.44863 10.5178 7.50071C10.6574 7.55043 10.8066 7.59304 10.9652 7.62855L11.6186 7.7848C11.9358 7.85582 12.227 7.95052 12.4922 8.06889C12.7573 8.18726 12.987 8.33286 13.1811 8.50568C13.3752 8.6785 13.5256 8.8821 13.6321 9.11648C13.741 9.35085 13.7966 9.61955 13.799 9.92259C13.7966 10.3677 13.683 10.7536 13.4581 11.0803C13.2356 11.4046 12.9136 11.6567 12.4922 11.8366C12.0732 12.0142 11.5677 12.103 10.9759 12.103C10.3887 12.103 9.87737 12.013 9.44176 11.8331C9.00852 11.6532 8.66998 11.3868 8.42614 11.0341C8.18466 10.679 8.058 10.2398 8.04616 9.71662H9.53409C9.55066 9.96046 9.6205 10.1641 9.74361 10.3274C9.86908 10.4884 10.036 10.6103 10.2443 10.6932C10.455 10.7737 10.6929 10.8139 10.9581 10.8139C11.2185 10.8139 11.4446 10.776 11.6364 10.7003C11.8305 10.6245 11.9808 10.5192 12.0874 10.3842C12.1939 10.2493 12.2472 10.0942 12.2472 9.91903C12.2472 9.75568 12.1986 9.61837 12.1016 9.5071C12.0069 9.39583 11.8672 9.30114 11.6825 9.22301C11.5002 9.14489 11.2765 9.07386 11.0114 9.00994L10.2195 8.81108C9.6063 8.66193 9.12216 8.42874 8.76705 8.11151C8.41193 7.79427 8.23556 7.36695 8.23793 6.82955C8.23556 6.3892 8.35275 6.0045 8.58949 5.67543C8.8286 5.34635 9.15649 5.08949 9.57315 4.90483C9.98982 4.72017 10.4633 4.62784 10.9936 4.62784C11.5334 4.62784 12.0045 4.72017 12.407 4.90483C12.8118 5.08949 13.1267 5.34635 13.3516 5.67543C13.5765 6.0045 13.6925 6.38565 13.6996 6.81889H12.2259Z" fill="white"/>
</g>
<defs>
<clipPath id="clip0_4_2">
<rect width="16" height="16" fill="white"/>
</clipPath>
</defs>
</svg>
