<?xml version="1.0" standalone="no"?>
<!DOCTYPE svg PUBLIC "-//W3C//DTD SVG 20010904//EN"
 "http://www.w3.org/TR/2001/REC-SVG-20010904/DTD/svg10.dtd">
<svg version="1.0" xmlns="http://www.w3.org/2000/svg"
 width="700.000000pt" height="700.000000pt" viewBox="0 0 700.000000 700.000000"
 preserveAspectRatio="xMidYMid meet">
<metadata>
Created by potrace 1.14, written by Peter Selinger 2001-2017
</metadata>
<g transform="translate(0.000000,700.000000) scale(0.100000,-0.100000)"
fill="#000000" stroke="none">
<path d="M220 5651 c-3 -431 0 -4764 4 -4769 2 -4 543 -7 1203 -7 l1198 0 0
760 c0 503 3 758 10 755 18 -9 103 -111 148 -178 77 -115 115 -197 186 -393
51 -144 159 -328 257 -439 188 -212 425 -366 684 -444 192 -57 242 -60 890
-60 491 0 654 4 730 19 14 3 36 7 49 10 300 60 581 208 796 420 142 140 225
253 309 423 50 98 99 231 110 292 2 14 9 46 15 73 6 26 14 64 17 85 3 20 7 48
10 62 6 32 34 244 39 290 27 262 27 849 1 1010 -3 14 -7 50 -10 80 -6 61 -22
179 -30 225 -4 17 -8 44 -11 60 -3 17 -7 41 -10 55 -3 14 -10 52 -15 85 -14
78 -61 248 -112 405 -211 653 -767 1115 -1448 1203 -86 11 -560 14 -2562 14
l-2458 1 0 -37z"/>
</g>
</svg>
